<svg width="60" height="48" viewBox="0 0 60 48" fill="none" xmlns="http://www.w3.org/2000/svg">
<path d="M48.264 11.8236C44.779 6.49466 39.4219 0 28.6505 0C17.8792 0 12.1734 6.82772 10.1623 13.3224C8.15129 19.817 0.677115 20.4832 0.034049 29.1427C-0.609017 37.8023 8.00056 43.2249 13.6992 45.2961C22.8629 48.6267 31.7051 48.3353 39.7434 47.2944C48.7463 46.1287 60 40.7998 60 30.4749C60 21.8154 51.749 17.1526 48.264 11.8236Z" fill="#FFDD00" style="mix-blend-mode:multiply"/>
<ellipse cx="24.8118" cy="25.0875" rx="8.70968" ry="2.58065" transform="rotate(5 24.8118 25.0875)" fill="#FF8800" style="mix-blend-mode:multiply"/>
<path fill-rule="evenodd" clip-rule="evenodd" d="M33.5825 18.5484C34.2952 18.5484 34.8729 19.2115 34.8729 20.0295V20.6157C34.8729 21.4337 34.2952 22.0968 33.5825 22.0968C32.8699 22.0968 32.2922 21.4337 32.2922 20.6157V20.0295C32.2922 19.2115 32.8699 18.5484 33.5825 18.5484Z" fill="#222222"/>
<path fill-rule="evenodd" clip-rule="evenodd" d="M18.0987 17.2581C18.8113 17.2581 19.389 17.8609 19.389 18.6045V19.1374C19.389 19.881 18.8113 20.4839 18.0987 20.4839C17.386 20.4839 16.8083 19.881 16.8083 19.1374V18.6045C16.8083 17.8609 17.386 17.2581 18.0987 17.2581Z" fill="#222222"/>
</svg>
